<?xml version="1.0" encoding="UTF-8" standalone="no"?>
<!DOCTYPE svg PUBLIC "-//W3C//DTD SVG 1.1//EN"
 "http://www.w3.org/Graphics/SVG/1.1/DTD/svg11.dtd">
<!-- Generated by graphviz version 13.1.2 (20250808.2320)
 -->
<!-- Title: G Pages: 1 -->
<svg width="867pt" height="206pt"
 viewBox="0.00 0.00 867.00 206.00" xmlns="http://www.w3.org/2000/svg" xmlns:xlink="http://www.w3.org/1999/xlink">
<g id="graph0" class="graph" transform="scale(1 1) rotate(0) translate(4 202)">
<title>G</title>
<polygon fill="white" stroke="none" points="-4,4 -4,-202 863,-202 863,4 -4,4"/>
<!-- aws_default_route_table.private_rt -->
<g id="node1" class="node">
<title>aws_default_route_table.private_rt</title>
<polygon fill="none" stroke="black" points="826.75,-193 603.75,-193 603.75,-157 826.75,-157 826.75,-193"/>
<text xml:space="preserve" text-anchor="middle" x="715.25" y="-169.2" font-family="sans-serif" font-size="14.00">aws_default_route_table.private_rt</text>
</g>
<!-- aws_nat_gateway.nat_gw -->
<g id="node4" class="node">
<title>aws_nat_gateway.nat_gw</title>
<polygon fill="none" stroke="black" points="535.5,-193 365,-193 365,-157 535.5,-157 535.5,-193"/>
<text xml:space="preserve" text-anchor="middle" x="450.25" y="-169.2" font-family="sans-serif" font-size="14.00">aws_nat_gateway.nat_gw</text>
</g>
<!-- aws_default_route_table.private_rt&#45;&gt;aws_nat_gateway.nat_gw -->
<g id="edge1" class="edge">
<title>aws_default_route_table.private_rt&#45;&gt;aws_nat_gateway.nat_gw</title>
<path fill="none" stroke="red" d="M603.48,-175C585.29,-175 566.56,-175 548.73,-175"/>
<polygon fill="red" stroke="red" points="548.82,-175 542.82,-179 536.82,-175 542.82,-171 548.82,-175"/>
</g>
<!-- aws_eip.nat_eip -->
<g id="node2" class="node">
<title>aws_eip.nat_eip</title>
<polygon fill="none" stroke="black" points="295.62,-198 182.12,-198 182.12,-162 295.62,-162 295.62,-198"/>
<text xml:space="preserve" text-anchor="middle" x="238.88" y="-174.2" font-family="sans-serif" font-size="14.00">aws_eip.nat_eip</text>
</g>
<!-- aws_internet_gateway.igw -->
<g id="node3" class="node">
<title>aws_internet_gateway.igw</title>
<polygon fill="none" stroke="black" points="325.62,-90 152.12,-90 152.12,-54 325.62,-54 325.62,-90"/>
<text xml:space="preserve" text-anchor="middle" x="238.88" y="-66.2" font-family="sans-serif" font-size="14.00">aws_internet_gateway.igw</text>
</g>
<!-- aws_vpc.vpc&#45;01 -->
<g id="node9" class="node">
<title>aws_vpc.vpc&#45;01</title>
<polygon fill="none" stroke="black" points="112.75,-90 0,-90 0,-54 112.75,-54 112.75,-90"/>
<text xml:space="preserve" text-anchor="middle" x="56.38" y="-66.2" font-family="sans-serif" font-size="14.00">aws_vpc.vpc&#45;01</text>
</g>
<!-- aws_internet_gateway.igw&#45;&gt;aws_vpc.vpc&#45;01 -->
<g id="edge2" class="edge">
<title>aws_internet_gateway.igw&#45;&gt;aws_vpc.vpc&#45;01</title>
<path fill="none" stroke="red" d="M151.85,-72C143.21,-72 134.52,-72 126.1,-72"/>
<polygon fill="red" stroke="red" points="126.02,-72 120.02,-76 114.02,-72 120.02,-68 126.02,-72"/>
</g>
<!-- aws_nat_gateway.nat_gw&#45;&gt;aws_eip.nat_eip -->
<g id="edge3" class="edge">
<title>aws_nat_gateway.nat_gw&#45;&gt;aws_eip.nat_eip</title>
<path fill="none" stroke="red" d="M364.69,-177.02C346.15,-177.46 326.74,-177.93 308.89,-178.35"/>
<polygon fill="red" stroke="red" points="308.8,-178.35 302.9,-182.5 296.8,-178.64 302.71,-174.5 308.8,-178.35"/>
</g>
<!-- aws_subnet.public_subnet -->
<g id="node8" class="node">
<title>aws_subnet.public_subnet</title>
<polygon fill="none" stroke="black" points="326.38,-144 151.38,-144 151.38,-108 326.38,-108 326.38,-144"/>
<text xml:space="preserve" text-anchor="middle" x="238.88" y="-120.2" font-family="sans-serif" font-size="14.00">aws_subnet.public_subnet</text>
</g>
<!-- aws_nat_gateway.nat_gw&#45;&gt;aws_subnet.public_subnet -->
<g id="edge4" class="edge">
<title>aws_nat_gateway.nat_gw&#45;&gt;aws_subnet.public_subnet</title>
<path fill="none" stroke="red" d="M370.39,-156.55C357.57,-153.54 344.19,-150.41 331.1,-147.35"/>
<polygon fill="red" stroke="red" points="331.22,-147.38 324.47,-149.91 319.54,-144.64 326.29,-142.12 331.22,-147.38"/>
</g>
<!-- aws_route_table.public_rt -->
<g id="node5" class="node">
<title>aws_route_table.public_rt</title>
<polygon fill="none" stroke="black" points="535.12,-92 365.38,-92 365.38,-56 535.12,-56 535.12,-92"/>
<text xml:space="preserve" text-anchor="middle" x="450.25" y="-68.2" font-family="sans-serif" font-size="14.00">aws_route_table.public_rt</text>
</g>
<!-- aws_route_table.public_rt&#45;&gt;aws_internet_gateway.igw -->
<g id="edge5" class="edge">
<title>aws_route_table.public_rt&#45;&gt;aws_internet_gateway.igw</title>
<path fill="none" stroke="red" d="M364.99,-73.2C356.37,-73.11 347.55,-73.03 338.78,-72.94"/>
<polygon fill="red" stroke="red" points="338.91,-72.95 332.87,-76.89 326.91,-72.83 332.95,-68.89 338.91,-72.95"/>
</g>
<!-- aws_route_table_association.public_rt_assoc -->
<g id="node6" class="node">
<title>aws_route_table_association.public_rt_assoc</title>
<polygon fill="none" stroke="black" points="859,-118 571.5,-118 571.5,-82 859,-82 859,-118"/>
<text xml:space="preserve" text-anchor="middle" x="715.25" y="-94.2" font-family="sans-serif" font-size="14.00">aws_route_table_association.public_rt_assoc</text>
</g>
<!-- aws_route_table_association.public_rt_assoc&#45;&gt;aws_route_table.public_rt -->
<g id="edge6" class="edge">
<title>aws_route_table_association.public_rt_assoc&#45;&gt;aws_route_table.public_rt</title>
<path fill="none" stroke="red" d="M571.21,-85.86C563.51,-85.1 555.86,-84.34 548.37,-83.6"/>
<polygon fill="red" stroke="red" points="548.36,-83.6 541.99,-86.99 536.42,-82.42 542.78,-79.03 548.36,-83.6"/>
</g>
<!-- aws_route_table_association.public_rt_assoc&#45;&gt;aws_subnet.public_subnet -->
<g id="edge7" class="edge">
<title>aws_route_table_association.public_rt_assoc&#45;&gt;aws_subnet.public_subnet</title>
<path fill="none" stroke="red" d="M571.28,-107.84C496.44,-111.94 406.66,-116.86 339.44,-120.54"/>
<polygon fill="red" stroke="red" points="339.61,-120.53 333.84,-124.86 327.63,-121.19 333.4,-116.87 339.61,-120.53"/>
</g>
<!-- aws_subnet.private_subnet -->
<g id="node7" class="node">
<title>aws_subnet.private_subnet</title>
<polygon fill="none" stroke="black" points="329,-36 148.75,-36 148.75,0 329,0 329,-36"/>
<text xml:space="preserve" text-anchor="middle" x="238.88" y="-12.2" font-family="sans-serif" font-size="14.00">aws_subnet.private_subnet</text>
</g>
<!-- aws_subnet.private_subnet&#45;&gt;aws_vpc.vpc&#45;01 -->
<g id="edge8" class="edge">
<title>aws_subnet.private_subnet&#45;&gt;aws_vpc.vpc&#45;01</title>
<path fill="none" stroke="red" d="M176.26,-36.43C159.74,-41.37 141.8,-46.74 124.97,-51.78"/>
<polygon fill="red" stroke="red" points="125.32,-51.67 120.72,-57.23 113.82,-55.11 118.42,-49.56 125.32,-51.67"/>
</g>
<!-- aws_subnet.public_subnet&#45;&gt;aws_vpc.vpc&#45;01 -->
<g id="edge9" class="edge">
<title>aws_subnet.public_subnet&#45;&gt;aws_vpc.vpc&#45;01</title>
<path fill="none" stroke="red" d="M176.26,-107.57C159.74,-102.63 141.8,-97.26 124.97,-92.22"/>
<polygon fill="red" stroke="red" points="125.32,-92.33 118.42,-94.44 113.82,-88.89 120.72,-86.77 125.32,-92.33"/>
</g>
</g>
</svg>
